<svg width="16" height="16" viewBox="0 0 16 16" fill="none" xmlns="http://www.w3.org/2000/svg">
<path d="M2.66634 5.33301H13.333V13.9997C13.333 14.3679 13.0345 14.6663 12.6663 14.6663H3.33301C2.96482 14.6663 2.66634 14.3679 2.66634 13.9997V5.33301ZM3.99967 6.66634V13.333H11.9997V6.66634H3.99967ZM5.99967 7.99967H7.33301V11.9997H5.99967V7.99967ZM8.66634 7.99967H9.99967V11.9997H8.66634V7.99967ZM4.66634 3.33301V1.99967C4.66634 1.63149 4.96482 1.33301 5.33301 1.33301H10.6663C11.0345 1.33301 11.333 1.63149 11.333 1.99967V3.33301H14.6663V4.66634H1.33301V3.33301H4.66634ZM5.99967 2.66634V3.33301H9.99967V2.66634H5.99967Z" fill="currentcolor"/>
</svg>
