<svg width="17" height="17" viewBox="0 0 17 17" fill="none" xmlns="http://www.w3.org/2000/svg">
<g clip-path="url(#clip0_356_1881)">
<path d="M3.44933 14.8975C3.44933 11.9519 5.83714 9.56413 8.78266 9.56413C11.7282 9.56413 14.116 11.9519 14.116 14.8975H12.7827C12.7827 12.6883 10.9918 10.8975 8.78266 10.8975C6.57352 10.8975 4.78266 12.6883 4.78266 14.8975H3.44933ZM8.78266 8.89746C6.57266 8.89746 4.78266 7.10746 4.78266 4.89746C4.78266 2.68746 6.57266 0.897461 8.78266 0.897461C10.9927 0.897461 12.7827 2.68746 12.7827 4.89746C12.7827 7.10746 10.9927 8.89746 8.78266 8.89746ZM8.78266 7.56413C10.256 7.56413 11.4493 6.37079 11.4493 4.89746C11.4493 3.42413 10.256 2.23079 8.78266 2.23079C7.30933 2.23079 6.11599 3.42413 6.11599 4.89746C6.11599 6.37079 7.30933 7.56413 8.78266 7.56413Z" fill="currentcolor"/>
</g>
<defs>
<clipPath id="clip0_356_1881">
<rect width="16" height="16" fill="white" transform="translate(0.78266 0.230835)"/>
</clipPath>
</defs>
</svg>
