<svg width="64" height="64" viewBox="0 0 64 64" fill="none" xmlns="http://www.w3.org/2000/svg">
<rect width="64" height="64" fill="#4D6BFE"/>
<path d="M58.1093 15.6689C57.5443 15.3921 57.301 15.9196 56.9706 16.1876C56.8576 16.2741 56.762 16.3865 56.6664 16.4902C55.8406 17.372 54.8758 17.9515 53.6154 17.8822C51.7727 17.7784 50.1994 18.3579 48.8086 19.7673C48.5131 18.0293 47.5309 16.9916 46.0358 16.3259C45.2536 15.98 44.4626 15.6341 43.915 14.8818C43.5325 14.3459 43.4282 13.7492 43.237 13.1612C43.1152 12.8067 42.9935 12.4434 42.585 12.3829C42.1417 12.3138 41.9678 12.6854 41.794 12.9969C41.0986 14.268 40.8292 15.6688 40.8552 17.0868C40.916 20.2776 42.2634 22.8195 44.9405 24.6268C45.2447 24.8343 45.3229 25.0417 45.2274 25.3445C45.0448 25.9671 44.8274 26.5723 44.6363 27.1948C44.5145 27.5927 44.332 27.6791 43.9061 27.506C42.4371 26.8923 41.168 25.9842 40.0467 24.8862C38.1432 23.0444 36.4221 21.0125 34.2752 19.4214C33.7711 19.0496 33.2669 18.7039 32.7453 18.3751C30.5548 16.2482 33.0322 14.5014 33.6059 14.294C34.2056 14.0779 33.8145 13.3341 31.8761 13.3429C29.9377 13.3515 28.1645 14 25.9046 14.8647C25.5744 14.9944 25.2265 15.0894 24.8702 15.1672C22.8189 14.7782 20.6892 14.6916 18.4641 14.9425C14.2744 15.4093 10.928 17.3895 8.46815 20.7704C5.51289 24.8343 4.81753 29.4515 5.66938 34.2678C6.56469 39.3433 9.15487 43.5456 13.1359 46.8315C17.2648 50.2381 22.0194 51.907 27.4433 51.5871C30.7376 51.3969 34.4057 50.956 38.5432 47.4541C39.5862 47.9729 40.6814 48.1803 42.4981 48.3359C43.8976 48.4656 45.2449 48.2668 46.2879 48.0507C47.922 47.7048 47.8091 46.1916 47.218 45.9149C42.4287 43.6842 43.4803 44.592 42.5243 43.857C44.958 40.9777 48.6262 37.9858 50.0604 28.2928C50.1733 27.5234 50.0777 27.0391 50.0604 26.4165C50.0516 26.0362 50.1386 25.8892 50.5732 25.8459C51.7727 25.7075 52.9374 25.379 54.0066 24.791C57.1097 23.0964 58.3613 20.3121 58.6568 16.9745C58.7004 16.4643 58.6482 15.9367 58.1093 15.6689ZM31.0679 45.7073C26.4263 42.0586 24.1751 40.8565 23.245 40.9084C22.3758 40.9604 22.5322 41.9547 22.7234 42.6033C22.9233 43.243 23.1841 43.6842 23.5491 44.2461C23.8012 44.6179 23.9751 45.1712 23.2972 45.5864C21.8021 46.5116 19.2031 45.275 19.0813 45.2146C16.0566 43.4332 13.5271 41.0813 11.7451 37.8649C10.0241 34.7692 9.02457 31.449 8.85934 27.9038C8.81588 27.0479 9.06794 26.7451 9.91978 26.5896C11.0411 26.3821 12.1972 26.3387 13.3184 26.503C18.0558 27.1948 22.0889 29.3132 25.4701 32.6681C27.3997 34.579 28.86 36.8619 30.3638 39.0927C31.9631 41.4617 33.6842 43.7187 35.8746 45.569C36.6482 46.2175 37.2653 46.7103 37.8564 47.0736C36.0746 47.2724 33.1018 47.3158 31.0679 45.7073ZM33.2931 31.3971C33.2931 31.0166 33.5973 30.7141 33.9799 30.7141C34.0668 30.7141 34.145 30.7312 34.2146 30.7571C34.3102 30.7918 34.3972 30.8437 34.4666 30.9214C34.5884 31.0426 34.6579 31.2154 34.6579 31.397C34.6579 31.7775 34.3537 32.08 33.9713 32.08C33.589 32.08 33.2931 31.7776 33.2931 31.3971ZM40.2034 34.9423C39.7601 35.1239 39.3168 35.2794 38.8909 35.2968C38.2303 35.3313 37.5088 35.0632 37.1177 34.7346C36.5093 34.2244 36.0747 33.9393 35.8922 33.0486C35.8139 32.6681 35.8573 32.0801 35.927 31.743C36.0834 31.0166 35.9095 30.5498 35.3968 30.126C34.9795 29.7801 34.4493 29.6851 33.8668 29.6851C33.6495 29.6851 33.4498 29.5899 33.3019 29.5121C33.0585 29.3911 32.8587 29.0884 33.0498 28.7166C33.1107 28.5957 33.4063 28.3016 33.4759 28.2498C34.2669 27.8 35.1795 27.9471 36.0227 28.2843C36.805 28.6042 37.3961 29.1922 38.2478 30.0223C39.1171 31.0252 39.2735 31.3021 39.7689 32.0542C40.1602 32.6422 40.5166 33.2474 40.7599 33.9393C40.9077 34.3716 40.7163 34.7261 40.2034 34.9423Z" fill="white"/>
</svg>
