<svg width="28" height="28" viewBox="0 0 28 28" fill="none" xmlns="http://www.w3.org/2000/svg">
<rect width="28" height="28" fill="#4D6BFE"/>
<path d="M24.4965 7.43453C24.2694 7.32324 24.1716 7.53533 24.0387 7.64308C23.9933 7.67783 23.9549 7.72301 23.9164 7.76471C23.5845 8.11923 23.1966 8.35219 22.6899 8.32434C21.9491 8.2826 21.3166 8.51556 20.7574 9.08218C20.6386 8.38348 20.2438 7.96627 19.6427 7.69867C19.3282 7.5596 19.0102 7.42053 18.79 7.11809C18.6363 6.90264 18.5944 6.66277 18.5175 6.42637C18.4685 6.28387 18.4196 6.13782 18.2554 6.11348C18.0772 6.0857 18.0073 6.23511 17.9374 6.36033C17.6578 6.87135 17.5495 7.43449 17.5599 8.00458C17.5844 9.28733 18.1261 10.3093 19.2023 11.0358C19.3246 11.1193 19.3561 11.2026 19.3177 11.3244C19.2443 11.5746 19.1569 11.818 19.08 12.0682C19.0311 12.2282 18.9577 12.2629 18.7865 12.1933C18.1959 11.9466 17.6857 11.5816 17.2349 11.1401C16.4696 10.3997 15.7777 9.58279 14.9146 8.94315C14.712 8.79366 14.5093 8.65467 14.2996 8.52251C13.419 7.66742 14.4149 6.96517 14.6455 6.88181C14.8866 6.79489 14.7294 6.49589 13.9501 6.49943C13.1708 6.50287 12.458 6.76361 11.5494 7.11122C11.4167 7.16338 11.2768 7.20157 11.1336 7.23285C10.3089 7.07646 9.45274 7.04163 8.55816 7.14251C6.87381 7.33018 5.52849 8.12625 4.53956 9.48546C3.35147 11.1193 3.07192 12.9755 3.41438 14.9118C3.77432 16.9522 4.81564 18.6417 6.41612 19.9627C8.07602 21.3322 9.98749 22.0031 12.168 21.8745C13.4924 21.7981 14.9671 21.6208 16.6305 20.213C17.0498 20.4215 17.4901 20.5049 18.2205 20.5675C18.7831 20.6196 19.3247 20.5397 19.744 20.4528C20.401 20.3138 20.3556 19.7054 20.118 19.5942C18.1925 18.6974 18.6153 19.0623 18.231 18.7668C19.2094 17.6093 20.6841 16.4065 21.2607 12.5097C21.3061 12.2003 21.2676 12.0056 21.2607 11.7553C21.2571 11.6024 21.2921 11.5434 21.4668 11.5259C21.9491 11.4703 22.4173 11.3383 22.8471 11.1019C24.0947 10.4206 24.5978 9.30122 24.7167 7.95941C24.7342 7.75429 24.7132 7.5422 24.4965 7.43453ZM13.6252 19.5107C11.7592 18.0438 10.8541 17.5606 10.4802 17.5815C10.1308 17.6023 10.1937 18.0021 10.2705 18.2628C10.3509 18.52 10.4557 18.6974 10.6025 18.9233C10.7038 19.0727 10.7738 19.2952 10.5012 19.4621C9.90012 19.8341 8.85526 19.3369 8.80631 19.3126C7.59029 18.5965 6.57339 17.6509 5.85699 16.3579C5.16508 15.1133 4.76325 13.7785 4.69683 12.3533C4.67935 12.0092 4.78069 11.8874 5.12315 11.8249C5.57393 11.7415 6.03871 11.7241 6.48949 11.7901C8.39402 12.0682 10.0154 12.9199 11.3747 14.2686C12.1505 15.0369 12.7376 15.9546 13.3422 16.8515C13.9851 17.8039 14.677 18.7112 15.5576 19.4551C15.8686 19.7158 16.1167 19.9139 16.3543 20.06C15.638 20.1399 14.4429 20.1574 13.6252 19.5107ZM14.5198 13.7577C14.5198 13.6047 14.6421 13.4831 14.7959 13.4831C14.8309 13.4831 14.8623 13.4899 14.8903 13.5004C14.9287 13.5143 14.9637 13.5352 14.9916 13.5664C15.0405 13.6151 15.0685 13.6846 15.0685 13.7576C15.0685 13.9106 14.9462 14.0322 14.7925 14.0322C14.6388 14.0322 14.5198 13.9106 14.5198 13.7577ZM17.2979 15.1829C17.1197 15.2559 16.9415 15.3184 16.7703 15.3254C16.5047 15.3393 16.2146 15.2315 16.0574 15.0994C15.8128 14.8943 15.6381 14.7797 15.5647 14.4216C15.5332 14.2686 15.5507 14.0323 15.5787 13.8967C15.6416 13.6047 15.5717 13.417 15.3655 13.2466C15.1978 13.1076 14.9846 13.0694 14.7505 13.0694C14.6631 13.0694 14.5828 13.0311 14.5233 12.9998C14.4255 12.9512 14.3452 12.8295 14.422 12.68C14.4465 12.6314 14.5653 12.5132 14.5933 12.4923C14.9113 12.3115 15.2782 12.3707 15.6172 12.5062C15.9317 12.6349 16.1693 12.8712 16.5117 13.2049C16.8612 13.6081 16.9241 13.7195 17.1232 14.0218C17.2806 14.2582 17.4238 14.5015 17.5216 14.7797C17.581 14.9535 17.5041 15.096 17.2979 15.1829Z" fill="white"/>
</svg>
