<svg width="28" height="28" viewBox="0 0 28 28" fill="none" xmlns="http://www.w3.org/2000/svg">
<rect width="28" height="28" fill="#74AA9C"/>
<path fill-rule="evenodd" clip-rule="evenodd" d="M8.04855 7.48826C8.73573 5.40839 10.7076 4.00005 12.9272 4.00005C14.3767 3.99344 15.7605 4.59722 16.7308 5.66048L16.7385 5.65765C18.9073 5.20503 21.1291 6.18616 22.2389 8.08318C22.9694 9.31869 23.1315 10.8033 22.6836 12.1642L22.69 12.1694C24.1715 13.7966 24.4215 16.1861 23.3117 18.0831C22.5927 19.3253 21.371 20.2061 19.9528 20.5037L19.9515 20.5117C19.2643 22.5916 17.2924 23.9999 15.0728 23.9999C13.6234 24.0066 12.2395 23.4028 11.2693 22.3396L11.2615 22.3425C9.09272 22.7951 6.87093 21.8139 5.76113 19.9169C5.03059 18.6814 4.8685 17.1968 5.31642 15.8359L5.31001 15.8306C3.82845 14.2034 3.57853 11.8139 4.68832 9.91687C5.40726 8.67475 6.629 7.7939 8.04716 7.49627L8.04855 7.48826ZM9.1367 13.5144L9.13594 9.06066C9.13541 8.62967 9.21178 8.20403 9.35726 7.8011L9.34437 7.79803C9.86681 6.34452 11.2729 5.30259 12.9272 5.29997L12.9205 5.30661C13.8098 5.30661 14.6648 5.60808 15.3504 6.16628L11.2072 8.527C11.161 8.55331 11.119 8.58417 11.0816 8.61887C10.9445 8.74086 10.8656 8.91746 10.8656 9.1068V14.4979L9.1367 13.5144ZM7.80081 8.92897V13.6504C7.80081 13.7038 7.80708 13.7559 7.81917 13.8059C7.85817 13.9831 7.97343 14.1379 8.13888 14.2322L12.8697 16.9277L11.1421 17.9137L7.2336 15.6876C6.85512 15.4725 6.51979 15.1944 6.23896 14.8686L6.22983 14.8781C5.21548 13.7048 5.00418 11.982 5.82904 10.5668L5.8315 10.5759C6.27618 9.8158 6.96819 9.23584 7.80081 8.92897ZM14.0001 16.2879L11.9923 15.1439V12.8561L14 11.7121L16.0077 12.8561V15.144L14.0001 16.2879ZM6.45047 16.7627L10.5936 19.1234C10.6392 19.1494 10.6866 19.1697 10.7351 19.1842C10.9112 19.2412 11.1064 19.2205 11.2732 19.1255L16.004 16.43L16.0055 18.3993L12.0977 20.6268C11.7197 20.8427 11.308 20.9903 10.8817 21.0674L10.8855 21.0801C9.34872 21.3603 7.73129 20.6795 6.90185 19.267L6.91104 19.2694C6.46635 18.5093 6.30343 17.6278 6.45047 16.7627ZM15.0795 22.6934C14.1902 22.6934 13.3353 22.3919 12.6497 21.8338L16.7928 19.4731C16.8401 19.4462 16.883 19.4145 16.9211 19.3787C17.0565 19.2568 17.1344 19.0813 17.1344 18.8932V13.5021L18.8633 14.4856L18.8641 18.9393C18.8646 19.3703 18.7882 19.796 18.6427 20.1989L18.6556 20.202C18.1332 21.6555 16.7271 22.6974 15.0728 22.7L15.0795 22.6934ZM20.1992 19.071V14.3496C20.1992 14.2962 20.1929 14.2441 20.1808 14.1941C20.1418 14.0169 20.0266 13.8621 19.8611 13.7678L15.1303 11.0723L16.8578 10.0864L20.7664 12.3125C21.1449 12.5276 21.4802 12.8057 21.761 13.1315L21.7702 13.122C22.7845 14.2952 22.9958 16.018 22.171 17.4332L22.1685 17.4241C21.7238 18.1842 21.0318 18.7642 20.1992 19.071ZM21.089 8.73071C21.5336 9.4908 21.6966 10.3722 21.5495 11.2373L17.4064 8.87656C17.3594 8.8498 17.3105 8.8291 17.2604 8.81443C17.0855 8.75925 16.8921 8.7804 16.7268 8.87461L11.996 11.5701L11.9945 9.60067L15.9023 7.37321C16.2803 7.15725 16.692 7.0097 17.1183 6.93258L17.1146 6.92004C18.6513 6.63978 20.2687 7.32058 21.0981 8.73314L21.089 8.73071Z" fill="white"/>
</svg>
