<svg width="33" height="41" viewBox="0 0 33 41" fill="none" xmlns="http://www.w3.org/2000/svg">
<path d="M1.95455 40.864H23.7727C24.103 40.8641 24.4234 40.7517 24.6811 40.5452L31.9538 34.727C32.1243 34.5908 32.2618 34.418 32.3564 34.2214C32.4509 34.0248 32.5 33.8094 32.5 33.5913V1.59126C32.5 1.20549 32.3468 0.835525 32.074 0.562745C31.8012 0.289965 31.4312 0.136719 31.0455 0.136719H1.95455C1.56878 0.136719 1.19881 0.289965 0.926027 0.562745C0.653247 0.835525 0.5 1.20549 0.5 1.59126V39.4095C0.5 39.7952 0.653247 40.1652 0.926027 40.438C1.19881 40.7107 1.56878 40.864 1.95455 40.864ZM23.7727 37.5476V33.5913H28.7173L23.7727 37.5476ZM3.40909 3.04581H29.5909V30.6822H22.3182C21.9324 30.6822 21.5624 30.8354 21.2897 31.1082C21.0169 31.381 20.8636 31.751 20.8636 32.1367V37.9549H3.40909V3.04581Z" fill="currentcolor"/>
<path d="M19.4021 20.5002C20.2094 20.5002 20.8638 19.8458 20.8638 19.0385C20.8638 18.2312 20.2094 17.5768 19.4021 17.5768C18.5948 17.5768 17.9404 18.2312 17.9404 19.0385C17.9404 19.8458 18.5948 20.5002 19.4021 20.5002Z" fill="currentcolor"/>
<path d="M24.4202 18.8004C24.5791 18.9066 24.7574 18.9804 24.9448 19.0176C25.1323 19.0548 25.3253 19.0547 25.5127 19.0173C25.7001 18.9799 25.8783 18.9059 26.0371 18.7996C26.1959 18.6933 26.3323 18.5567 26.4383 18.3977C26.5443 18.2387 26.6179 18.0603 26.655 17.8728C26.692 17.6853 26.6918 17.4924 26.6542 17.305C26.6166 17.1176 26.5425 16.9395 26.4361 16.7807C26.3296 16.622 26.1929 16.4858 26.0338 16.3799L21.6702 13.4708C21.3492 13.2572 20.9566 13.1798 20.5785 13.2556C20.2005 13.3314 19.868 13.5541 19.6541 13.8749C19.4403 14.1957 19.3625 14.5883 19.438 14.9664C19.5134 15.3445 19.7359 15.6772 20.0565 15.8913L24.4202 18.8004Z" fill="currentcolor"/>
<path d="M13.5981 20.5002C14.4053 20.5002 15.0597 19.8458 15.0597 19.0385C15.0597 18.2312 14.4053 17.5768 13.5981 17.5768C12.7908 17.5768 12.1364 18.2312 12.1364 19.0385C12.1364 19.8458 12.7908 20.5002 13.5981 20.5002Z" fill="currentcolor"/>
<path d="M13.3471 13.8756C13.2413 13.7165 13.1052 13.5798 12.9465 13.4734C12.7878 13.367 12.6096 13.2929 12.4223 13.2554C12.2349 13.2179 12.042 13.2178 11.8546 13.255C11.6671 13.2922 11.4889 13.3661 11.3301 13.4723L6.96644 16.3814C6.80733 16.4873 6.67065 16.6234 6.5642 16.7822C6.45776 16.9409 6.38363 17.1191 6.34607 17.3064C6.30851 17.4938 6.30825 17.6868 6.3453 17.8743C6.38235 18.0618 6.45599 18.2401 6.562 18.3991C6.66801 18.5582 6.80432 18.6947 6.96314 18.801C7.12196 18.9074 7.30017 18.9813 7.48759 19.0187C7.67502 19.0561 7.86797 19.0562 8.05543 19.019C8.24289 18.9818 8.42118 18.908 8.58011 18.8019L12.9437 15.8928C13.1027 15.7868 13.2392 15.6506 13.3455 15.4919C13.4518 15.3332 13.5257 15.1551 13.5632 14.9677C13.6007 14.7804 13.6008 14.5876 13.5638 14.4002C13.5267 14.2128 13.4531 14.0346 13.3471 13.8756Z" fill="currentcolor"/>
<path d="M22.1377 27.7621C22.1983 27.7698 22.2593 27.7735 22.3203 27.7734C22.6901 27.7727 23.0457 27.6311 23.3148 27.3775C23.584 27.1239 23.7464 26.7773 23.7691 26.4082C23.7918 26.0392 23.6731 25.6753 23.4371 25.3906C23.2011 25.1059 22.8655 24.9218 22.4986 24.8757L10.8622 23.4212C10.4821 23.3786 10.1004 23.4875 9.79997 23.7243C9.49952 23.9611 9.30444 24.3067 9.257 24.6863C9.20956 25.0659 9.31358 25.4489 9.54651 25.7523C9.77945 26.0558 10.1226 26.2553 10.5015 26.3076L22.1377 27.7621Z" fill="currentcolor"/>
</svg>
