<svg width="17" height="17" viewBox="0 0 17 17" fill="none" xmlns="http://www.w3.org/2000/svg">
<path d="M15.54 8.66699C15.54 8.14699 15.4933 7.64699 15.4067 7.16699H8.5V10.007H12.4467C12.2733 10.9203 11.7533 11.6937 10.9733 12.2137V14.0603H13.3533C14.74 12.7803 15.54 10.9003 15.54 8.66699Z" fill="#4285F4"/>
<path d="M8.50004 15.8337C10.48 15.8337 12.14 15.1804 13.3534 14.0604L10.9734 12.2137C10.32 12.6537 9.4867 12.9204 8.50004 12.9204C6.59337 12.9204 4.97337 11.6337 4.39337 9.90039H1.95337V11.7937C3.16004 14.1871 5.63337 15.8337 8.50004 15.8337Z" fill="#34A853"/>
<path d="M4.39341 9.89289C4.24675 9.45289 4.16008 8.98622 4.16008 8.49956C4.16008 8.01289 4.24675 7.54622 4.39341 7.10622V5.21289H1.95341C1.45341 6.19956 1.16675 7.31289 1.16675 8.49956C1.16675 9.68622 1.45341 10.7996 1.95341 11.7862L3.85341 10.3062L4.39341 9.89289Z" fill="#FBBC05"/>
<path d="M8.50004 4.08699C9.58004 4.08699 10.54 4.46033 11.3067 5.18033L13.4067 3.08033C12.1334 1.89366 10.48 1.16699 8.50004 1.16699C5.63337 1.16699 3.16004 2.81366 1.95337 5.21366L4.39337 7.10699C4.97337 5.37366 6.59337 4.08699 8.50004 4.08699Z" fill="#EA4335"/>
</svg>
